<?xml version="1.0" standalone="no"?>
<!DOCTYPE svg PUBLIC "-//W3C//DTD SVG 20010904//EN"
 "http://www.w3.org/TR/2001/REC-SVG-20010904/DTD/svg10.dtd">
<svg version="1.0" xmlns="http://www.w3.org/2000/svg"
 width="880.000000pt" height="880.000000pt" viewBox="0 0 880.000000 880.000000"
 preserveAspectRatio="xMidYMid meet">
<metadata>
Created by potrace 1.14, written by Peter Selinger 2001-2017
</metadata>
<g transform="translate(0.000000,880.000000) scale(0.100000,-0.100000)"
fill="#000000" stroke="none">
<path d="M2442 7693 c-538 -924 -1902 -3300 -1900 -3309 2 -6 437 -764 968
-1683 l964 -1671 1926 0 1925 0 22 33 c11 17 449 773 972 1679 559 969 948
1655 946 1666 -4 23 -1914 3334 -1929 3344 -6 4 -876 8 -1933 8 l-1922 0 -39
-67z m4632 -1688 c479 -830 883 -1531 898 -1556 l27 -46 -902 -1564 -903
-1564 -1790 -3 -1791 -2 -898 1555 c-543 942 -895 1562 -893 1573 4 14 1735
3021 1784 3100 l14 22 1791 -2 1791 -3 872 -1510z"/>
<path d="M4283 4886 c-219 -53 -383 -261 -383 -486 0 -270 230 -500 500 -500
270 0 500 230 500 500 0 274 -233 503 -508 499 -31 0 -80 -6 -109 -13z"/>
</g>
</svg>
